<svg xmlns="http://www.w3.org/2000/svg" width="56.572" height="56.572" viewBox="0 0 56.572 56.572"><path d="M28.286,0A28.286,28.286,0,1,0,56.572,28.286,28.369,28.369,0,0,0,28.286,0ZM13.043,48.244a15.4,15.4,0,0,1,7.7-10.214,11.773,11.773,0,0,0,7.543,2.829,12.106,12.106,0,0,0,7.543-2.829A19.515,19.515,0,0,1,39.443,40.7a15.466,15.466,0,0,1,4.086,7.543,24.475,24.475,0,0,1-15.243,5.186A24.475,24.475,0,0,1,13.043,48.244ZM28.286,37.715c-5.186,0-9.429-4.871-9.429-11s4.243-11,9.429-11,9.429,4.872,9.429,11S33.472,37.715,28.286,37.715ZM46.2,45.886A18.866,18.866,0,0,0,41.643,38.5a20.452,20.452,0,0,0-3.614-2.829,15.57,15.57,0,0,0,2.829-8.957c0-7.857-5.657-14.143-12.572-14.143S15.715,18.857,15.715,26.715a15.2,15.2,0,0,0,2.829,8.957,18.745,18.745,0,0,0-8.172,10.214,25.143,25.143,0,1,1,35.829,0Z" fill="#0d006f"/></svg>