<svg xmlns="http://www.w3.org/2000/svg" viewBox="0 0 122 122"><defs><style>.a{fill:#e4e4e4;}</style></defs><path class="a" d="M61,0a61,61,0,1,0,61,61A61.179,61.179,0,0,0,61,0ZM28.128,104.039A33.216,33.216,0,0,1,44.733,82.011,25.388,25.388,0,0,0,61,88.111c6.1,0,11.522-2.372,16.267-6.1a42.085,42.085,0,0,1,7.794,5.761,33.352,33.352,0,0,1,8.811,16.267A52.782,52.782,0,0,1,61,115.222,52.782,52.782,0,0,1,28.128,104.039ZM61,81.333c-11.183,0-20.333-10.506-20.333-23.722S49.817,33.889,61,33.889,81.333,44.394,81.333,57.611,72.183,81.333,61,81.333ZM99.633,98.956a40.686,40.686,0,0,0-9.828-15.928,44.106,44.106,0,0,0-7.794-6.1,33.577,33.577,0,0,0,6.1-19.317c0-16.944-12.2-30.5-27.111-30.5s-27.111,13.556-27.111,30.5a32.786,32.786,0,0,0,6.1,19.317A40.424,40.424,0,0,0,22.367,98.956a54.222,54.222,0,1,1,77.267,0Z"/></svg>