<svg xmlns="http://www.w3.org/2000/svg" viewBox="0 0 19.459 60"><defs><style>.a{fill:#a7a9ac;}</style></defs><rect class="a" width="3.243" height="3.243"/><rect class="a" width="3.243" height="3.243" transform="translate(0 16.216)"/><rect class="a" width="3.243" height="3.243" transform="translate(0 32.432)"/><rect class="a" width="3.243" height="3.243" transform="translate(0 48.649)"/><g transform="translate(0 8.108)"><rect class="a" width="3.243" height="3.243"/><rect class="a" width="3.243" height="3.243" transform="translate(0 16.216)"/><rect class="a" width="3.243" height="3.243" transform="translate(0 32.432)"/><rect class="a" width="3.243" height="3.243" transform="translate(0 48.649)"/></g><g transform="translate(8.108)"><rect class="a" width="3.243" height="3.243"/><rect class="a" width="3.243" height="3.243" transform="translate(0 16.216)"/><rect class="a" width="3.243" height="3.243" transform="translate(0 32.432)"/><rect class="a" width="3.243" height="3.243" transform="translate(0 48.649)"/></g><g transform="translate(8.108 8.108)"><rect class="a" width="3.243" height="3.243"/><rect class="a" width="3.243" height="3.243" transform="translate(0 16.216)"/><rect class="a" width="3.243" height="3.243" transform="translate(0 32.432)"/><rect class="a" width="3.243" height="3.243" transform="translate(0 48.649)"/></g><g transform="translate(16.216)"><rect class="a" width="3.243" height="3.243"/><rect class="a" width="3.243" height="3.243" transform="translate(0 16.216)"/><rect class="a" width="3.243" height="3.243" transform="translate(0 32.432)"/><rect class="a" width="3.243" height="3.243" transform="translate(0 48.649)"/></g><g transform="translate(16.216 8.108)"><rect class="a" width="3.243" height="3.243"/><rect class="a" width="3.243" height="3.243" transform="translate(0 16.216)"/><rect class="a" width="3.243" height="3.243" transform="translate(0 32.432)"/><rect class="a" width="3.243" height="3.243" transform="translate(0 48.649)"/></g></svg>