<svg xmlns="http://www.w3.org/2000/svg" viewBox="0 0 31.016 27.4"><defs><style>.a{fill:#fff;}</style></defs><path class="a" d="M205.808,0A1.907,1.907,0,0,0,203.9,1.908V25.492a1.908,1.908,0,0,0,3.815,0V1.908A1.907,1.907,0,0,0,205.808,0Z" transform="translate(-176.7 0)"/><path class="a" d="M137.808,46.2a1.907,1.907,0,0,0-1.908,1.908V65.529a1.908,1.908,0,0,0,3.815,0V48.108A1.907,1.907,0,0,0,137.808,46.2Z" transform="translate(-117.771 -40.037)"/><path class="a" d="M69.908,82.2A1.907,1.907,0,0,0,68,84.108V96.714a1.908,1.908,0,0,0,3.815,0V84.121A1.919,1.919,0,0,0,69.908,82.2Z" transform="translate(-58.929 -71.235)"/><path class="a" d="M1.908,117.6A1.907,1.907,0,0,0,0,119.508v7.9a1.908,1.908,0,0,0,3.815,0v-7.9A1.907,1.907,0,0,0,1.908,117.6Z" transform="translate(0 -101.912)"/></svg>