<svg xmlns="http://www.w3.org/2000/svg" width="19.459" height="60" viewBox="0 0 19.459 60"><rect width="3.243" height="3.243" fill="#a7a9ac"/><rect width="3.243" height="3.243" transform="translate(0 16.216)" fill="#a7a9ac"/><rect width="3.243" height="3.243" transform="translate(0 32.432)" fill="#a7a9ac"/><rect width="3.243" height="3.243" transform="translate(0 48.649)" fill="#a7a9ac"/><g transform="translate(0 8.108)"><rect width="3.243" height="3.243" fill="#a7a9ac"/><rect width="3.243" height="3.243" transform="translate(0 16.216)" fill="#a7a9ac"/><rect width="3.243" height="3.243" transform="translate(0 32.432)" fill="#a7a9ac"/><rect width="3.243" height="3.243" transform="translate(0 48.649)" fill="#a7a9ac"/></g><g transform="translate(8.108)"><rect width="3.243" height="3.243" fill="#a7a9ac"/><rect width="3.243" height="3.243" transform="translate(0 16.216)" fill="#a7a9ac"/><rect width="3.243" height="3.243" transform="translate(0 32.432)" fill="#a7a9ac"/><rect width="3.243" height="3.243" transform="translate(0 48.649)" fill="#a7a9ac"/></g><g transform="translate(8.108 8.108)"><rect width="3.243" height="3.243" fill="#a7a9ac"/><rect width="3.243" height="3.243" transform="translate(0 16.216)" fill="#a7a9ac"/><rect width="3.243" height="3.243" transform="translate(0 32.432)" fill="#a7a9ac"/><rect width="3.243" height="3.243" transform="translate(0 48.649)" fill="#a7a9ac"/></g><g transform="translate(16.216)"><rect width="3.243" height="3.243" fill="#a7a9ac"/><rect width="3.243" height="3.243" transform="translate(0 16.216)" fill="#a7a9ac"/><rect width="3.243" height="3.243" transform="translate(0 32.432)" fill="#a7a9ac"/><rect width="3.243" height="3.243" transform="translate(0 48.649)" fill="#a7a9ac"/></g><g transform="translate(16.216 8.108)"><rect width="3.243" height="3.243" fill="#a7a9ac"/><rect width="3.243" height="3.243" transform="translate(0 16.216)" fill="#a7a9ac"/><rect width="3.243" height="3.243" transform="translate(0 32.432)" fill="#a7a9ac"/><rect width="3.243" height="3.243" transform="translate(0 48.649)" fill="#a7a9ac"/></g></svg>