<svg xmlns="http://www.w3.org/2000/svg" viewBox="0 0 64.158 64.434"><defs><style>.a{fill:#c1c1c1;}</style></defs><g transform="translate(0.1 0.1)"><path class="a" d="M13.595,2.689h.279a1.4,1.4,0,0,0,1.395-1.395A1.318,1.318,0,0,0,13.874-.1h-.279a1.395,1.395,0,0,0,0,2.789Z" transform="translate(4.855)"/><path class="a" d="M1.395,19.768a1.4,1.4,0,0,0,1.395-1.395v-.279a1.395,1.395,0,1,0-2.789,0v.418A1.288,1.288,0,0,0,1.395,19.768Z" transform="translate(0.039 6.631)"/><path class="a" d="M1.255,8.089h0A1.5,1.5,0,0,0,2.65,6.695,1.376,1.376,0,0,0,1.395,5.3,1.288,1.288,0,0,0,0,6.555v.279A1.171,1.171,0,0,0,1.255,8.089Z" transform="translate(0.039 2.131)"/><path class="a" d="M1.395,15.968a1.4,1.4,0,0,0,1.395-1.395v-.279a1.395,1.395,0,1,0-2.789,0v.279A1.318,1.318,0,0,0,1.395,15.968Z" transform="translate(0.039 5.131)"/><path class="a" d="M1.395,12.168a1.4,1.4,0,0,0,1.395-1.395v-.279a1.395,1.395,0,0,0-2.789,0v.279A1.4,1.4,0,0,0,1.395,12.168Z" transform="translate(0.039 3.631)"/><path class="a" d="M27.685,6.227a1.054,1.054,0,0,0,.558-.139,1.384,1.384,0,0,0,.7-1.813L28.8,4a1.178,1.178,0,0,0-1.674-.558,1.432,1.432,0,0,0-.7,1.813A1.42,1.42,0,0,0,27.685,6.227Z" transform="translate(10.429 1.343)"/><path class="a" d="M26.8,8.395v.279a1.4,1.4,0,0,0,1.395,1.395,1.318,1.318,0,0,0,1.395-1.395V8.395a1.395,1.395,0,0,0-2.789,0Z" transform="translate(10.617 2.802)"/><path class="a" d="M17.495,2.689h.279a1.4,1.4,0,0,0,1.395-1.395A1.318,1.318,0,0,0,17.774-.1h-.279A1.4,1.4,0,0,0,16.1,1.295,1.318,1.318,0,0,0,17.495,2.689Z" transform="translate(6.394)"/><path class="a" d="M21.295,2.689h.279a1.4,1.4,0,0,0,1.395-1.395A1.318,1.318,0,0,0,21.574-.1h-.279a1.395,1.395,0,0,0,0,2.789Z" transform="translate(7.894)"/><path class="a" d="M24.645,3.241a1.045,1.045,0,0,0,.7.139,1.242,1.242,0,0,0,1.116-.7A1.372,1.372,0,0,0,25.9.87L25.621.731a1.291,1.291,0,0,0-1.674.558A1.426,1.426,0,0,0,24.645,3.241Z" transform="translate(9.425 0.285)"/><path class="a" d="M1.948,2.324,1.669,2.6a1.322,1.322,0,0,0,.279,1.813,1.982,1.982,0,0,0,.837.279A1.268,1.268,0,0,0,3.9,4.137a1.485,1.485,0,0,0,0-1.953A1.466,1.466,0,0,0,1.948,2.324Z" transform="translate(0.602 0.784)"/><path class="a" d="M10.074,0H9.795A1.4,1.4,0,0,0,8.4,1.395,1.318,1.318,0,0,0,9.795,2.789h.279a1.395,1.395,0,0,0,0-2.789Z" transform="translate(3.355 0.039)"/><path class="a" d="M13.274,26.8h-.279a1.395,1.395,0,1,0,0,2.789h.279a1.4,1.4,0,0,0,1.395-1.395A1.626,1.626,0,0,0,13.274,26.8Z" transform="translate(4.618 10.617)"/><path class="a" d="M9.374,26.8H9.095a1.395,1.395,0,0,0,0,2.789h.279a1.395,1.395,0,0,0,0-2.789Z" transform="translate(3.078 10.617)"/><path class="a" d="M5.7,26.625a1.323,1.323,0,0,0-.837,2.51l.279.139h.279A1.34,1.34,0,0,0,6.675,28.3,1.238,1.238,0,0,0,5.7,26.625Z" transform="translate(1.593 10.513)"/><path class="a" d="M1.575,24.567a1.358,1.358,0,0,0-.418,1.813l.139.279a1.412,1.412,0,0,0,.976.558,1.982,1.982,0,0,0,.837-.279,1.5,1.5,0,0,0,.279-1.953A1.24,1.24,0,0,0,1.575,24.567Z" transform="translate(0.417 9.642)"/><path class="a" d="M5.963.106H5.684A1.285,1.285,0,0,0,4.708,1.64,1.512,1.512,0,0,0,6.242,2.756h.279A1.382,1.382,0,0,0,7.636,1.222,1.53,1.53,0,0,0,5.963.106Z" transform="translate(1.887 0.073)"/><path class="a" d="M2.689,22.274v-.279a1.395,1.395,0,1,0-2.789,0v.279a1.395,1.395,0,1,0,2.789,0Z" transform="translate(0 8.17)"/><path class="a" d="M48.022,17.3H44.117a1.395,1.395,0,1,0,0,2.789h3.905a6.7,6.7,0,0,1,6.694,6.694V48.122a6.7,6.7,0,0,1-6.694,6.694H26.684a6.7,6.7,0,0,1-6.694-6.694V43.1a1.4,1.4,0,0,0-1.395-1.395A1.318,1.318,0,0,0,17.2,43.1v5.021a9.345,9.345,0,0,0,9.344,9.344H47.883a9.345,9.345,0,0,0,9.344-9.344V26.644A9.14,9.14,0,0,0,48.022,17.3Z" transform="translate(6.828 6.867)"/><path class="a" d="M16.7,34.963c-.139,3.208,2.789,6.276,7.81,7.95a20.2,20.2,0,0,0,6.555,1.116c2.65,0,5.3-.7,6.973-2.371l3.905-3.905c4.045-4.045,2.929-12.134-.558-17.015a44.419,44.419,0,0,0-6.276-7.113,3.825,3.825,0,0,0-5.579.139,2.925,2.925,0,0,0-.837,1.116,3.806,3.806,0,0,0-3.626-.976A4.7,4.7,0,0,0,22,16.693a4.3,4.3,0,0,0-4.045,1.116,4.208,4.208,0,0,0-1.116,4.045,5.07,5.07,0,0,0-2.789,3.068,3.5,3.5,0,0,0,.976,3.626l3.208,3.208C17.532,32.174,16.835,33.011,16.7,34.963Zm.279-8.229a1.085,1.085,0,0,1-.279-1.116,1.886,1.886,0,0,1,1.255-1.255,1.158,1.158,0,0,1,1.116.279l3.208,3.208a1.266,1.266,0,0,0,.976.418,1.507,1.507,0,0,0,.976-.418,1.348,1.348,0,0,0,0-1.953L19.9,21.574h0a1.218,1.218,0,0,1,.139-1.813c.139-.139,1.116-.976,1.813-.139l1.255,1.255h0l3.766,3.766a1.266,1.266,0,0,0,.976.418,1.507,1.507,0,0,0,.976-.418,1.348,1.348,0,0,0,0-1.953l-3.766-3.766a1.085,1.085,0,0,1-.279-1.116,1.886,1.886,0,0,1,1.255-1.255,1.158,1.158,0,0,1,1.116.279l2.51,2.51L31.619,21.3a1.381,1.381,0,0,0,1.953-1.953L31.619,17.39c-.837-.837.139-1.813.139-1.813.279-.279,1.116-.976,1.813-.139a49.836,49.836,0,0,1,6,6.834c2.929,3.905,3.905,10.46.837,13.528L36.5,39.705c-2.092,2.092-6.973,1.953-10.739.558-3.068-1.116-6.137-3.208-6.137-5.439,0-.418.139-.7,0-.7.7,0,2.51,1.255,3.905,2.65l.139.139a1.381,1.381,0,1,0,1.953-1.953l-.139-.139Z" transform="translate(5.519 4.964)"/></g></svg>