<svg xmlns="http://www.w3.org/2000/svg" viewBox="0 0 25.082 25.082"><path d="M134.271,150.992h12.541v-6.271H134.271Zm14.631,0h2.09V136.361a1.8,1.8,0,0,0-.163-.629,1.757,1.757,0,0,0-.327-.563l-4.589-4.589a2.326,2.326,0,0,0-1.192-.49v6.793a1.561,1.561,0,0,1-1.568,1.568h-9.406a1.561,1.561,0,0,1-1.568-1.568V130.09h-2.09v20.9h2.09V144.2a1.561,1.561,0,0,1,1.568-1.568h13.586A1.561,1.561,0,0,1,148.9,144.2Zm-6.271-15.154v-5.225a.53.53,0,0,0-.523-.523h-3.135a.53.53,0,0,0-.523.523v5.225a.53.53,0,0,0,.523.523h3.135a.53.53,0,0,0,.523-.523Zm10.451.523v15.154a1.561,1.561,0,0,1-1.568,1.568H129.568A1.561,1.561,0,0,1,128,151.514V129.568A1.561,1.561,0,0,1,129.568,128h15.154a4.349,4.349,0,0,1,2.678,1.11l4.572,4.572a4.349,4.349,0,0,1,1.11,2.678Z" transform="translate(-128 -128)" fill="#a7a9ac"/></svg>