<svg xmlns="http://www.w3.org/2000/svg" width="69.594" height="69.594" viewBox="0 0 69.594 69.594"><g transform="translate(1 1)"><path d="M60.563,68.593H9.031A8.055,8.055,0,0,1,1,60.563V9.031A8.055,8.055,0,0,1,9.031,1H60.563a8.055,8.055,0,0,1,8.031,8.031V60.563A8.055,8.055,0,0,1,60.563,68.593Z" transform="translate(-1 -1)" fill="none" stroke="#707070" stroke-miterlimit="10" stroke-width="2"/><circle cx="2.677" cy="2.677" r="2.677" transform="translate(8.7 48.855)" fill="none" stroke="#707070" stroke-miterlimit="10" stroke-width="2"/><circle cx="2.677" cy="2.677" r="2.677" transform="translate(25.766 31.789)" fill="none" stroke="#707070" stroke-miterlimit="10" stroke-width="2"/><circle cx="2.677" cy="2.677" r="2.677" transform="translate(42.162 35.47)" fill="none" stroke="#707070" stroke-miterlimit="10" stroke-width="2"/><circle cx="2.677" cy="2.677" r="2.677" transform="translate(56.886 15.393)" fill="none" stroke="#707070" stroke-miterlimit="10" stroke-width="2"/><line y1="6.157" x2="9.503" transform="translate(0 53.405)" fill="none" stroke="#707070" stroke-miterlimit="10" stroke-width="2"/><line y1="13.318" x2="13.251" transform="translate(13.452 36.474)" fill="none" stroke="#707070" stroke-miterlimit="10" stroke-width="2"/><line x2="11.377" y2="4.015" transform="translate(30.785 34.131)" fill="none" stroke="#707070" stroke-miterlimit="10" stroke-width="2"/><line y1="15.393" x2="11.31" transform="translate(46.579 20.746)" fill="none" stroke="#707070" stroke-miterlimit="10" stroke-width="2"/><line y1="0.937" x2="5.956" transform="translate(61.637 15.393)" fill="none" stroke="#707070" stroke-miterlimit="10" stroke-width="2"/></g></svg>