<svg xmlns="http://www.w3.org/2000/svg" viewBox="0 0 44.449 44.449"><defs><style>.a{fill:#f8f8f8;}</style></defs><path class="a" d="M22.225,0A22.225,22.225,0,1,0,44.449,22.225,22.233,22.233,0,0,0,22.225,0Zm-5.1,31.233H12.742V17.306h4.386ZM14.816,15.587h0a2.44,2.44,0,1,1,0-4.86,2.5,2.5,0,0,1,2.667,2.43A2.435,2.435,0,0,1,14.816,15.587ZM34.73,31.233H29.751V24c0-1.9-.77-3.2-2.489-3.2a2.547,2.547,0,0,0-2.371,1.719,3.289,3.289,0,0,0-.119,1.126v7.527H19.854s.059-12.742,0-13.927h4.919v2.193c.3-.948,1.9-2.311,4.386-2.311,3.141,0,5.571,2.015,5.571,6.341Z"/></svg>