<svg xmlns="http://www.w3.org/2000/svg" viewBox="0 0 32 28"><defs><style>.a{fill:#fff;}</style></defs><path class="a" d="M10.9,3A3.99,3.99,0,0,0,7,0,4.079,4.079,0,0,0,3.1,3H0V5H3.1A3.99,3.99,0,0,0,7,8a4.079,4.079,0,0,0,3.9-3H32V3ZM7,6A2,2,0,1,1,9,4,2.006,2.006,0,0,1,7,6Z"/><path class="a" d="M25,10a4.079,4.079,0,0,0-3.9,3H0v2H21.1A3.99,3.99,0,0,0,25,18a4.079,4.079,0,0,0,3.9-3H32V13H28.9A4.079,4.079,0,0,0,25,10Zm0,6a2,2,0,1,1,2-2A2.006,2.006,0,0,1,25,16Z"/><path class="a" d="M13,20a4.079,4.079,0,0,0-3.9,3H0v2H9.1A3.99,3.99,0,0,0,13,28a4.079,4.079,0,0,0,3.9-3H32V23H16.9A4.079,4.079,0,0,0,13,20Zm0,6a2,2,0,1,1,2-2A2.006,2.006,0,0,1,13,26Z"/></svg>