<svg xmlns="http://www.w3.org/2000/svg" width="52.871" height="52.871" viewBox="0 0 52.871 52.871"><path d="M26.436,0A26.436,26.436,0,1,0,52.871,26.436,26.513,26.513,0,0,0,26.436,0ZM12.19,45.087a14.4,14.4,0,0,1,7.2-9.546,11,11,0,0,0,7.049,2.644,11.314,11.314,0,0,0,7.049-2.644,18.238,18.238,0,0,1,3.378,2.5,14.454,14.454,0,0,1,3.818,7.049,22.874,22.874,0,0,1-14.246,4.847A22.874,22.874,0,0,1,12.19,45.087Zm14.246-9.84c-4.847,0-8.812-4.553-8.812-10.28s3.965-10.28,8.812-10.28,8.812,4.553,8.812,10.28S31.282,35.247,26.436,35.247Zm16.743,7.637a17.632,17.632,0,0,0-4.259-6.9,19.114,19.114,0,0,0-3.378-2.644,14.551,14.551,0,0,0,2.644-8.371c0-7.343-5.287-13.218-11.749-13.218S14.686,17.624,14.686,24.967a14.209,14.209,0,0,0,2.644,8.371,17.519,17.519,0,0,0-7.637,9.546,23.5,23.5,0,1,1,33.485,0Z" fill="#707070"/></svg>