<svg xmlns="http://www.w3.org/2000/svg" width="24" height="24" viewBox="0 0 24 24"><path d="M222,0a12,12,0,1,0,12,12A12,12,0,0,0,222,0Zm4.832,10.112v.32a6.889,6.889,0,0,1-6.848,7.008,6.653,6.653,0,0,1-3.68-1.12,3.478,3.478,0,0,0,.576.032,4.627,4.627,0,0,0,2.976-1.056,2.4,2.4,0,0,1-2.24-1.728,2.112,2.112,0,0,0,.448.032,2.063,2.063,0,0,0,.64-.1,2.453,2.453,0,0,1-1.92-2.432V11.04a2.531,2.531,0,0,0,1.088.32,2.471,2.471,0,0,1-1.056-2.048,2.778,2.778,0,0,1,.32-1.248,6.863,6.863,0,0,0,4.96,2.592,3.526,3.526,0,0,1-.064-.576,2.432,2.432,0,0,1,2.4-2.464,2.367,2.367,0,0,1,1.76.768,4.539,4.539,0,0,0,1.536-.608,2.681,2.681,0,0,1-1.056,1.376,4.867,4.867,0,0,0,1.376-.384A4.977,4.977,0,0,1,226.832,10.112Z" transform="translate(-210)" fill="#e0e0e0"/></svg>