<svg xmlns="http://www.w3.org/2000/svg" viewBox="0 0 44.449 44.449"><defs><style>.a{fill:#f8f8f8;}</style></defs><path class="a" d="M232.225,0a22.225,22.225,0,1,0,22.225,22.225A22.233,22.233,0,0,0,232.225,0Zm8.949,18.728v.593c0,6.045-4.5,12.979-12.683,12.979a12.322,12.322,0,0,1-6.816-2.074,6.442,6.442,0,0,0,1.067.059,8.57,8.57,0,0,0,5.512-1.956,4.446,4.446,0,0,1-4.149-3.2,3.913,3.913,0,0,0,.83.059,3.821,3.821,0,0,0,1.185-.178,4.544,4.544,0,0,1-3.556-4.5v-.059a4.687,4.687,0,0,0,2.015.593,4.577,4.577,0,0,1-1.956-3.793,5.146,5.146,0,0,1,.593-2.311,12.712,12.712,0,0,0,9.186,4.8,6.529,6.529,0,0,1-.119-1.067,4.5,4.5,0,0,1,4.445-4.563,4.385,4.385,0,0,1,3.26,1.422,8.407,8.407,0,0,0,2.845-1.126,4.965,4.965,0,0,1-1.956,2.548,9.015,9.015,0,0,0,2.548-.711A9.218,9.218,0,0,1,241.174,18.728Z" transform="translate(-209.999)"/></svg>